# xmcd CD database file
#
# Track frame offsets:
#	150
#	78928
#	128624
#	165749
#	201524
#	248999
#	279966
#	304291
#
# Disc length: 4399 seconds
#
# Revision: 0
# Processed by: cddbd v1.5PL3 Copyright (c) Steve Scherf et al.
# Submitted via: CDex 1.51
#
DISCID=69112d08
DTITLE=Dexter Gordon - Birthday Celebration CD 2 (1969-1970)
DYEAR=2003
DGENRE=Jazz
TTITLE0=Broadway
TTITLE1=Body And Soul
TTITLE2=Fried Bananas
TTITLE3=Sophisticated Lady
TTITLE4=The Chase
TTITLE5=Star Eyes
TTITLE6=If You Could See Me Now
TTITLE7=The Jumpin' Blues
EXTD=YEAR: 2003
EXTT0=
EXTT1=
EXTT2=
EXTT3=
EXTT4=
EXTT5=
EXTT6=
EXTT7=
PLAYORDER=
